<svg width="100%" height="100%" viewBox="0 0 200 80" version="1.1" xmlns="http://www.w3.org/2000/svg">
<defs>
<style>.cls-2 { fill: #f5f5f5; }</style>
</defs>
    <g class="cls-2">
        <path d="M154.292,46.417C153.781,46.884 153.27,47.373 152.759,47.884C152.27,48.373 151.748,48.84 151.192,49.285C150.525,49.796 149.881,50.185 149.258,50.451C148.636,50.696 148.014,50.818 147.391,50.818C145.947,50.818 144.835,50.407 144.057,49.585C143.279,48.762 142.824,47.518 142.69,45.851C142.69,45.651 142.657,45.451 142.59,45.251C142.546,45.028 142.435,44.806 142.257,44.584L141.89,44.95C141.757,45.062 141.601,45.217 141.424,45.417C141.135,45.639 140.768,45.917 140.323,46.251C139.901,46.584 139.401,46.984 138.823,47.451C138.045,48.251 137.39,48.907 136.856,49.418C136.323,49.929 135.945,50.296 135.723,50.518C135.278,50.896 134.756,51.274 134.156,51.652C133.578,52.029 132.922,52.418 132.189,52.818C131.722,53.063 131.322,53.252 130.988,53.385C130.655,53.541 130.411,53.619 130.255,53.619C129.188,53.619 128.399,53.363 127.888,52.852C127.377,52.318 127.121,51.507 127.121,50.418C127.121,49.818 127.255,49.251 127.521,48.718C127.766,48.162 128.144,47.629 128.655,47.118C128.699,46.829 128.721,46.595 128.721,46.417C128.721,46.306 128.688,46.195 128.621,46.084C128.577,45.951 128.51,45.806 128.421,45.651C128.288,45.339 128.144,44.995 127.988,44.617C127.81,44.217 127.621,43.795 127.421,43.35C127.51,43.261 127.643,43.095 127.821,42.85C127.977,42.583 128.166,42.261 128.388,41.883L131.422,39.883C131.533,39.772 131.666,39.627 131.822,39.45C131.978,39.25 132.155,38.972 132.355,38.616C132.511,38.327 132.711,38.083 132.955,37.883C133.222,37.683 133.522,37.505 133.856,37.349C134.033,37.127 134.289,36.849 134.622,36.516C134.956,36.182 135.378,35.793 135.889,35.349C136.134,35.216 136.445,35.027 136.823,34.782C137.201,34.515 137.612,34.171 138.056,33.749C140.079,31.837 141.846,30.404 143.357,29.448C144.891,28.492 146.18,28.014 147.225,28.014C147.802,28.014 148.225,28.137 148.491,28.381C148.78,28.626 148.925,28.97 148.925,29.415C148.925,29.881 148.836,30.292 148.658,30.648C148.503,31.004 148.247,31.304 147.891,31.548C147.336,31.948 146.736,32.393 146.091,32.882C145.735,33.349 145.302,33.849 144.791,34.382C144.28,34.893 143.68,35.404 142.99,35.916C142.768,36.205 142.579,36.46 142.424,36.682C142.313,36.794 142.101,36.994 141.79,37.283C141.479,37.571 141.068,37.905 140.557,38.283C140.335,38.772 139.846,39.405 139.09,40.183C138.356,40.961 137.367,41.894 136.123,42.983C135.967,43.139 135.689,43.495 135.289,44.05C134.889,44.606 134.367,45.339 133.722,46.251L133.956,46.551C134.445,46.395 134.956,46.128 135.489,45.751C136.023,45.373 136.612,44.873 137.256,44.25C138.012,43.561 138.623,43.006 139.09,42.583C139.579,42.139 139.923,41.85 140.123,41.717L140.59,41.45C140.746,41.361 140.923,41.25 141.124,41.117C142.146,39.894 143.102,38.994 143.991,38.416C144.88,37.816 145.702,37.516 146.458,37.516C146.924,37.516 147.28,37.705 147.525,38.083C147.769,38.438 147.914,38.983 147.958,39.716C147.914,40.828 147.891,41.894 147.891,42.917C147.869,43.628 148.058,44.273 148.458,44.85C148.88,45.406 149.425,45.684 150.092,45.684C150.292,45.684 150.481,45.628 150.658,45.517C150.858,45.406 151.059,45.262 151.259,45.084C151.414,44.884 151.559,44.695 151.692,44.517L152.159,43.984C152.248,43.939 152.37,43.861 152.525,43.75C152.692,43.646 152.849,43.523 152.996,43.38C152.984,43.369 152.971,43.36 152.959,43.35C153.381,42.928 154.015,42.328 154.859,41.55C155.726,40.75 156.815,39.772 158.126,38.616C158.26,38.505 158.593,38.138 159.127,37.516C159.66,36.894 160.427,36.005 161.427,34.849C161.894,34.382 162.46,33.782 163.127,33.049C163.794,32.315 164.55,31.448 165.394,30.448C165.95,29.692 166.494,29.115 167.028,28.714C167.583,28.314 168.117,28.114 168.628,28.114C169.273,28.114 169.739,28.281 170.028,28.614C170.34,28.926 170.495,29.381 170.495,29.981C170.495,30.359 170.44,30.915 170.328,31.648C170.217,32.382 170.162,32.937 170.162,33.315C170.162,33.938 170.062,35.027 169.862,36.582C169.684,38.138 169.395,40.161 168.995,42.65C168.973,42.806 168.917,43.072 168.828,43.45C168.761,43.806 168.65,44.284 168.495,44.884C168.361,45.328 168.272,45.74 168.228,46.117C168.184,46.495 168.161,46.817 168.161,47.084C168.184,47.262 168.195,47.406 168.195,47.518C169.284,46.717 170.228,45.973 171.029,45.284C171.851,44.595 172.529,43.95 173.062,43.35L174.396,46.417C174.173,46.529 172.618,47.907 169.728,50.551C169.595,50.951 169.295,51.374 168.828,51.818C168.384,52.263 167.772,52.718 166.994,53.185C166.772,53.563 166.506,54.052 166.194,54.652C165.883,55.274 165.528,55.997 165.128,56.819C164.905,57.419 164.705,57.986 164.527,58.519C164.372,59.075 164.238,59.564 164.127,59.986C163.905,60.875 163.516,61.931 162.96,63.154C162.405,64.376 161.727,65.798 160.927,67.421C159.949,69.355 159.071,70.799 158.293,71.755C157.537,72.711 156.904,73.177 156.393,73.155C155.859,73.111 155.426,73.066 155.093,73.022C154.781,73 154.581,72.966 154.492,72.922C154.292,72.788 154.159,72.555 154.092,72.222C154.003,71.911 153.959,71.499 153.959,70.988C153.959,70.655 154.015,70.132 154.126,69.421C154.237,68.732 154.404,67.877 154.626,66.854C154.781,66.143 154.981,65.443 155.226,64.754C155.493,64.087 155.793,63.42 156.126,62.753C156.415,62.109 156.715,61.487 157.026,60.886C157.337,60.286 157.66,59.642 157.993,58.953C158.726,58.064 159.438,57.097 160.127,56.052C160.838,55.008 161.549,53.874 162.26,52.652C162.394,52.185 162.527,51.596 162.66,50.885C162.816,50.151 162.972,49.285 163.127,48.284C163.327,47.218 163.494,46.24 163.627,45.351C163.738,44.595 163.827,43.995 163.894,43.55C163.983,43.106 164.016,42.806 163.994,42.65L163.794,40.916L164.361,39.116C164.272,38.849 164.15,38.649 163.994,38.516C163.861,38.361 163.705,38.283 163.527,38.283C163.105,38.283 162.705,38.394 162.327,38.616C161.949,38.838 161.594,39.161 161.26,39.583C160.882,40.094 160.416,40.639 159.86,41.217C159.304,41.772 158.649,42.395 157.893,43.084C156.959,43.928 156.193,44.628 155.593,45.184C154.992,45.717 154.559,46.128 154.292,46.417ZM153.075,43.457C153.244,43.822 153.396,44.162 153.531,44.479C153.474,44.321 153.416,44.156 153.359,43.984C153.314,43.85 153.259,43.728 153.192,43.617C153.156,43.557 153.117,43.504 153.075,43.457ZM117.346,37.499C117.35,37.478 117.353,37.483 117.353,37.516L117.346,37.499ZM70.53,46.383L70.545,46.417C69.967,46.929 69.412,47.44 68.878,47.951C68.367,48.462 67.822,48.962 67.245,49.451C66.6,50.074 65.955,50.54 65.311,50.851C64.666,51.14 64.022,51.285 63.377,51.285C62.71,51.285 61.577,50.607 59.977,49.251C58.399,47.873 57.554,47.184 57.443,47.184C56.621,47.94 55.898,48.696 55.276,49.451C54.876,49.94 54.476,50.418 54.076,50.885C53.698,51.329 53.309,51.796 52.909,52.285C52.798,52.441 52.62,52.63 52.375,52.852C52.131,53.074 51.853,53.33 51.542,53.619C51.231,54.063 50.875,54.485 50.475,54.885C50.097,55.308 49.619,55.519 49.042,55.519C48.152,55.519 47.486,55.263 47.041,54.752C46.597,54.241 46.374,53.463 46.374,52.418C46.374,51.352 46.463,50.218 46.641,49.018C46.841,47.818 47.141,46.562 47.541,45.251C47.697,44.628 47.819,44.084 47.908,43.617C47.997,43.128 48.041,42.706 48.041,42.35L47.808,42.017C47.519,42.372 47.152,42.795 46.708,43.284C46.263,43.773 45.741,44.373 45.141,45.084C45.052,45.151 44.952,45.273 44.841,45.451C44.752,45.606 44.53,45.928 44.174,46.417C44.063,46.128 43.93,45.784 43.774,45.384C43.596,44.984 43.418,44.517 43.241,43.984C43.196,43.85 43.141,43.728 43.074,43.617C43.007,43.506 42.929,43.417 42.84,43.35C42.929,43.284 43.018,43.195 43.107,43.084C43.196,42.95 43.296,42.75 43.407,42.483C43.541,42.261 43.73,42.028 43.974,41.783C44.218,41.517 44.507,41.228 44.841,40.916C45.463,40.405 46.019,39.772 46.508,39.016C47.019,38.238 47.519,37.349 48.008,36.349C48.653,34.949 49.242,33.76 49.775,32.782C50.308,31.804 50.797,31.059 51.242,30.548C51.375,30.037 51.642,29.226 52.042,28.114C52.442,27.003 52.975,25.558 53.642,23.78C54.287,22.091 54.831,20.724 55.276,19.68C55.72,18.613 56.054,17.879 56.276,17.479C56.365,17.324 56.476,17.124 56.609,16.879C56.765,16.635 56.887,16.335 56.976,15.979C57.287,14.934 57.654,13.968 58.076,13.079C58.499,12.167 58.932,11.312 59.377,10.511C59.488,10.311 59.621,10.156 59.777,10.045C59.954,9.934 60.132,9.878 60.31,9.878C61.199,9.878 61.855,10.222 62.277,10.911C62.722,11.6 62.944,12.612 62.944,13.945C62.944,15.434 62.466,17.501 61.51,20.146C60.555,22.769 59.088,25.958 57.11,29.715C56.709,30.559 56.276,31.593 55.809,32.815C55.343,34.038 54.876,35.438 54.409,37.016C54.031,38.238 53.664,39.483 53.309,40.75C52.953,42.017 52.587,43.261 52.209,44.484C51.853,45.662 51.586,46.595 51.409,47.284C51.231,47.951 51.142,48.396 51.142,48.618C51.142,48.773 51.164,48.884 51.209,48.951C51.275,49.018 51.364,49.051 51.475,49.051C51.698,49.051 51.886,48.984 52.042,48.851C52.22,48.718 52.353,48.529 52.442,48.284C52.887,47.64 53.32,46.917 53.742,46.117C54.187,45.295 54.631,44.395 55.076,43.417L55.176,42.45C55.331,40.983 55.665,39.961 56.176,39.383C56.687,38.805 57.643,38.349 59.043,38.016C59.221,37.949 59.665,37.349 60.377,36.216C61.11,35.082 62.077,33.404 63.277,31.182C63.944,30.004 64.5,29.126 64.944,28.548C65.389,27.948 65.722,27.648 65.944,27.648C66.456,27.648 66.822,27.814 67.045,28.148C67.267,28.481 67.378,28.981 67.378,29.648C67.378,31.359 66.422,33.515 64.511,36.116C62.599,38.716 61.644,40.428 61.644,41.25C61.644,41.828 62.155,42.717 63.177,43.917C64.2,45.095 65.044,45.684 65.711,45.684C65.933,45.684 66.178,45.617 66.444,45.484C66.733,45.328 67.067,45.095 67.445,44.784C67.734,44.562 68.011,44.328 68.278,44.084C68.552,43.83 68.847,43.597 69.161,43.384C69.156,43.373 69.15,43.362 69.145,43.35C69.634,42.928 70.012,42.595 70.278,42.35C70.545,42.106 70.756,41.894 70.912,41.717C71.267,41.383 71.556,41.061 71.779,40.75C72.001,40.439 72.123,40.161 72.145,39.916C72.345,39.161 72.579,38.216 72.845,37.083C73.112,35.949 73.457,34.638 73.879,33.149C74.079,32.704 74.29,32.148 74.512,31.482C74.757,30.793 75.013,30.026 75.279,29.181C75.546,28.07 75.879,27.059 76.279,26.147C76.679,25.236 77.124,24.414 77.613,23.68C77.769,23.48 77.924,23.236 78.08,22.947C78.235,22.636 78.391,22.28 78.546,21.88C78.702,21.524 78.913,21.113 79.18,20.646C79.469,20.157 79.791,19.591 80.147,18.946C81.058,17.613 81.858,16.468 82.547,15.512C83.236,14.557 83.803,13.79 84.247,13.212C85.048,12.256 85.848,11.367 86.648,10.545C87.47,9.7 88.292,8.922 89.115,8.211C89.871,7.566 90.526,7.1 91.082,6.811C91.637,6.5 92.082,6.344 92.415,6.344C92.727,6.611 92.949,6.855 93.082,7.078C93.238,7.078 93.393,7.055 93.549,7.011C94.127,7.011 94.549,7.244 94.816,7.711C95.083,8.178 95.216,8.867 95.216,9.778C95.216,9.978 95.183,10.245 95.116,10.578C95.049,10.889 94.96,11.278 94.849,11.745C94.694,11.901 94.582,12.101 94.516,12.345C94.449,12.59 94.394,12.834 94.349,13.079C94.327,13.39 94.293,13.656 94.249,13.879C94.205,14.101 94.149,14.301 94.082,14.479C93.793,15.012 93.482,15.668 93.149,16.446C92.815,17.201 92.46,18.09 92.082,19.113C91.86,19.491 91.582,19.991 91.249,20.613C90.915,21.235 90.515,21.924 90.048,22.68C89.826,23.102 89.537,23.636 89.182,24.28C88.848,24.903 88.415,25.625 87.881,26.447C87.748,26.759 87.515,27.103 87.181,27.481C86.87,27.837 86.492,28.259 86.048,28.748C85.914,29.103 85.536,29.715 84.914,30.581C84.314,31.448 83.469,32.571 82.38,33.949C81.847,34.638 81.158,35.493 80.313,36.516C79.469,37.538 78.491,38.749 77.38,40.15C76.957,41.817 76.635,43.306 76.413,44.617C76.213,45.906 76.113,47.029 76.113,47.984C76.113,48.362 76.135,48.651 76.179,48.851C76.246,49.029 76.357,49.118 76.513,49.118C76.624,48.962 76.779,48.784 76.979,48.584C77.202,48.384 77.424,48.151 77.646,47.884C78.069,47.506 78.558,46.806 79.113,45.784C79.691,44.762 80.347,43.439 81.08,41.817C81.725,40.35 82.303,39.227 82.814,38.449C83.325,37.649 83.747,37.171 84.081,37.016L85.248,36.516C85.47,36.427 85.67,36.349 85.848,36.282C86.025,36.216 86.17,36.182 86.281,36.182C86.57,36.182 86.837,36.36 87.081,36.716C87.326,37.071 87.526,37.56 87.681,38.183C87.97,39.316 88.204,40.194 88.381,40.816C88.559,41.417 88.659,41.772 88.681,41.883C88.97,42.55 89.315,43.039 89.715,43.35C90.137,43.661 90.637,43.817 91.215,43.817C91.897,43.707 92.698,43.554 93.619,43.357C93.618,43.355 93.617,43.352 93.616,43.35C93.705,43.261 93.927,43.095 94.282,42.85C94.616,42.606 95.06,42.317 95.616,41.983C95.972,41.783 96.383,41.428 96.849,40.916C97.338,40.383 97.883,39.683 98.483,38.816C98.994,38.127 99.439,37.471 99.817,36.849C100.217,36.227 100.539,35.66 100.783,35.149C101.606,33.415 102.417,32.137 103.217,31.315C104.04,30.493 104.884,30.081 105.751,30.081C106.062,30.081 106.295,30.159 106.451,30.315C106.629,30.47 106.718,30.715 106.718,31.048C106.718,31.67 106.662,32.648 106.551,33.982C106.44,35.293 106.384,36.305 106.384,37.016C106.384,37.327 106.407,37.794 106.451,38.416C106.496,39.038 106.551,39.827 106.618,40.783C106.707,41.806 106.784,42.606 106.851,43.184C106.918,43.739 106.984,44.061 107.051,44.15L107.385,44.417C107.851,44.417 109.207,41.917 111.452,36.916C113.697,31.915 115.519,29.415 116.919,29.415C117.497,29.415 117.909,29.603 118.153,29.981C118.42,30.359 118.553,30.915 118.553,31.648C118.553,31.937 118.486,32.193 118.353,32.415C118.22,32.637 118.031,32.826 117.786,32.982C117.697,33.049 117.62,33.171 117.553,33.349C117.508,33.526 117.486,33.76 117.486,34.049C117.331,34.849 117.164,35.671 116.986,36.516C117.031,36.716 117.086,36.894 117.153,37.049L117.346,37.499C117.327,37.579 117.274,38.04 117.186,38.883C117.097,39.95 116.975,41.617 116.819,43.884C116.797,44.017 116.786,44.184 116.786,44.384C116.808,44.584 116.853,44.817 116.919,45.084C117.008,45.373 117.197,45.673 117.486,45.984C117.931,45.984 118.598,45.306 119.487,43.95C120.398,42.572 121.531,40.516 122.887,37.783C122.976,37.316 123.098,36.805 123.254,36.249C123.432,35.693 123.665,35.104 123.954,34.482C124.132,33.971 124.343,33.46 124.587,32.948C124.854,32.415 125.099,31.893 125.321,31.382L125.054,30.381L125.321,29.115C125.41,28.67 125.51,28.248 125.621,27.848C125.777,27.292 125.999,26.881 126.288,26.614C126.577,26.325 126.91,26.181 127.288,26.181C127.666,26.181 127.944,26.281 128.121,26.481C128.299,26.659 128.388,26.914 128.388,27.248C128.388,28.381 128.277,29.559 128.055,30.781C127.832,32.004 127.51,33.271 127.088,34.582C126.621,36.071 126.088,37.449 125.488,38.716C124.91,39.983 124.254,41.183 123.521,42.317C122.965,43.761 122.12,45.384 120.987,47.184C120.253,48.318 119.664,49.196 119.22,49.818C118.798,50.418 118.542,50.774 118.453,50.885C117.853,51.596 117.242,52.141 116.619,52.518C115.997,52.874 115.364,53.052 114.719,53.052C113.897,53.052 113.263,52.407 112.819,51.118C112.397,49.829 112.185,47.895 112.185,45.317C112.185,45.051 112.241,44.728 112.352,44.35C112.463,43.973 112.519,43.684 112.519,43.484L112.352,43.217C112.241,43.217 112.063,43.372 111.819,43.684C111.596,43.995 111.307,44.517 110.952,45.251C110.53,46.028 110.052,46.873 109.518,47.784C109.496,48.007 109.44,48.262 109.352,48.551C109.285,48.84 109.163,49.14 108.985,49.451L107.885,51.552C107.707,51.952 107.507,52.352 107.285,52.752C107.085,53.13 106.896,53.519 106.718,53.919C106.451,54.23 106.129,54.463 105.751,54.619C105.395,54.774 104.984,54.852 104.517,54.852C104.384,54.852 104.251,54.841 104.117,54.819C104.006,54.819 103.862,54.774 103.684,54.685L103.117,54.085C102.939,53.908 102.673,52.741 102.317,50.585C101.961,48.407 101.439,45.228 100.75,41.05C100.528,41.183 100.328,41.328 100.15,41.483C99.972,41.639 99.806,41.806 99.65,41.983C99.45,42.206 99.194,42.483 98.883,42.817C98.594,43.15 98.261,43.539 97.883,43.984C97.594,44.317 97.105,44.717 96.416,45.184C95.744,45.618 95.262,46.019 94.971,46.39C94.975,46.399 94.979,46.408 94.982,46.417C94.449,46.773 93.905,47.118 93.349,47.451L91.749,48.451C91.393,48.651 90.882,48.807 90.215,48.918C89.548,49.007 88.77,49.051 87.881,49.051C86.526,49.051 85.47,48.418 84.714,47.151C83.981,45.862 83.536,45.228 83.381,45.251L83.181,45.251C82.825,45.695 82.447,46.151 82.047,46.617C81.669,47.084 81.291,47.573 80.913,48.084C80.669,48.596 80.324,49.185 79.88,49.851C79.435,50.518 78.902,51.252 78.28,52.052C77.546,52.941 76.902,53.607 76.346,54.052C75.79,54.497 75.313,54.719 74.912,54.719C74.068,54.719 73.401,54.619 72.912,54.419C72.445,54.241 72.168,53.963 72.079,53.585C71.812,52.341 71.601,51.263 71.445,50.351C71.312,49.418 71.245,48.629 71.245,47.984C71.245,47.784 71.256,47.606 71.279,47.451C71.301,47.295 71.323,47.151 71.345,47.017C71.412,46.729 71.49,46.417 71.579,46.084C71.579,45.973 71.545,45.895 71.479,45.851C71.434,45.784 71.345,45.751 71.212,45.751C71.145,45.84 71.056,45.94 70.945,46.051C70.844,46.152 70.705,46.263 70.53,46.383ZM93.845,43.833C93.971,44.136 94.105,44.453 94.249,44.784C94.41,45.121 94.572,45.473 94.733,45.839C94.627,45.572 94.51,45.298 94.382,45.017C94.221,44.646 94.042,44.251 93.845,43.833ZM90.815,12.545C90.571,12.545 90.082,12.99 89.348,13.879C88.615,14.745 87.681,16.035 86.548,17.746C85.903,18.702 85.27,19.657 84.647,20.613C84.025,21.547 83.414,22.469 82.814,23.38C82.547,23.647 82.347,23.914 82.214,24.18C82.103,24.447 82.047,24.725 82.047,25.014C81.602,26.258 81.169,27.425 80.747,28.514C80.347,29.692 80.013,30.604 79.747,31.248C79.502,31.893 79.358,32.271 79.313,32.382L79.48,32.548C79.924,32.148 80.302,31.726 80.613,31.282C81.058,30.77 81.591,30.115 82.214,29.315C82.858,28.492 83.581,27.536 84.381,26.447C85.181,25.425 86.003,24.136 86.848,22.58C87.692,21.002 88.604,19.191 89.582,17.146C90.137,16.035 90.548,15.146 90.815,14.479C91.104,13.812 91.249,13.345 91.249,13.079C91.249,12.923 91.215,12.801 91.149,12.712C91.104,12.601 90.993,12.545 90.815,12.545ZM0,43.35C0.089,43.284 0.167,43.206 0.233,43.117C0.278,43.028 0.3,42.917 0.3,42.783C0.678,42.472 1.1,42.05 1.567,41.517C2.056,40.961 2.6,40.316 3.201,39.583C3.69,38.916 4.19,38.249 4.701,37.583C5.234,36.916 5.801,36.249 6.401,35.582C6.89,34.915 7.368,34.226 7.835,33.515C8.324,32.782 8.835,32.071 9.368,31.382C10.257,30.959 10.946,30.659 11.435,30.481C11.924,30.304 12.258,30.215 12.435,30.215C12.769,30.215 13.024,30.326 13.202,30.548C13.38,30.748 13.469,31.048 13.469,31.448C13.469,31.582 13.436,31.771 13.369,32.015C13.302,32.259 13.224,32.526 13.136,32.815C12.98,33.26 12.802,33.715 12.602,34.182C12.424,34.96 12.213,35.738 11.969,36.516C11.724,37.294 11.491,38.06 11.269,38.816C11.046,39.772 10.868,40.65 10.735,41.45C10.624,42.25 10.568,42.983 10.568,43.65C10.568,44.895 10.624,45.817 10.735,46.417C10.868,47.017 11.046,47.284 11.269,47.218C11.491,47.084 11.769,46.929 12.102,46.751C12.435,46.551 12.824,46.328 13.269,46.084C13.669,45.662 14.113,45.139 14.602,44.517C15.114,43.895 15.725,43.161 16.436,42.317C16.836,41.694 17.247,41.083 17.67,40.483C17.825,40.305 18.003,40.094 18.203,39.85C18.425,39.605 18.625,39.361 18.803,39.116C19.225,38.049 19.692,37.26 20.203,36.749C20.737,36.216 21.326,35.949 21.97,35.949C22.548,35.949 23.004,36.027 23.337,36.182C23.693,36.316 23.937,36.527 24.071,36.816C24.137,36.971 24.193,37.238 24.237,37.616C24.282,37.994 24.304,38.494 24.304,39.116C24.304,39.361 24.349,39.716 24.437,40.183C24.549,40.65 24.604,40.994 24.604,41.217C24.604,42.039 24.749,42.661 25.038,43.084C25.326,43.484 25.771,43.684 26.371,43.684C26.549,43.684 26.76,43.65 27.005,43.584C27.249,43.517 27.493,43.439 27.738,43.35L29.072,46.417C27.738,47.218 26.638,47.829 25.771,48.251C24.926,48.651 24.293,48.851 23.871,48.851C22.759,48.851 21.848,48.562 21.137,47.984C20.426,47.406 19.903,46.551 19.57,45.417C19.525,45.151 19.425,44.884 19.27,44.617C19.137,44.35 18.959,44.084 18.736,43.817C18.536,44.039 18.303,44.306 18.036,44.617C17.792,44.928 17.525,45.239 17.236,45.551C16.636,46.284 16.036,47.006 15.436,47.718C14.836,48.407 14.225,49.096 13.602,49.785C12.824,50.696 12.035,51.363 11.235,51.785C10.457,52.185 9.724,52.385 9.035,52.385C8.012,52.385 7.19,52.085 6.568,51.485C5.945,50.863 5.545,49.951 5.368,48.751C5.168,47.595 5.034,46.695 4.967,46.051C4.901,45.406 4.89,45.017 4.934,44.884C4.89,44.239 4.823,43.75 4.734,43.417C4.667,43.084 4.556,42.917 4.401,42.917L4.201,43.017L2.3,44.984C2.234,45.139 2.123,45.339 1.967,45.584C1.811,45.806 1.6,46.084 1.334,46.417C1.245,46.084 1.089,45.673 0.867,45.184C0.645,44.695 0.356,44.084 0,43.35ZM38.64,51.085C38.64,51.396 38.551,51.696 38.373,51.985C38.217,52.274 37.973,52.552 37.64,52.818C37.528,53.152 37.384,53.396 37.206,53.552C37.051,53.73 36.839,53.819 36.573,53.819C35.661,53.819 34.884,53.496 34.239,52.852C33.594,52.207 33.083,51.252 32.705,49.985L32.939,49.751L32.605,48.884C32.717,48.529 32.817,48.184 32.905,47.851L33.172,46.851C33.283,46.429 33.461,46.128 33.706,45.951C33.972,45.751 34.272,45.651 34.606,45.651C35.184,45.651 35.717,45.806 36.206,46.117C36.717,46.429 37.173,46.906 37.573,47.551C37.951,48.129 38.217,48.718 38.373,49.318C38.551,49.896 38.64,50.485 38.64,51.085ZM174.129,12.545C174.64,12.545 175.007,12.656 175.229,12.878C175.474,13.101 175.596,13.423 175.596,13.845C175.596,14.29 175.507,14.823 175.329,15.446C175.151,16.068 174.896,16.757 174.562,17.513C174.296,18.135 174.051,18.724 173.829,19.28C173.673,19.657 173.151,20.146 172.262,20.746C171.395,21.324 170.74,21.613 170.295,21.613C169.695,21.613 169.184,21.58 168.761,21.513C168.361,21.424 168.05,21.302 167.828,21.147C167.628,20.991 167.461,20.713 167.328,20.313C167.217,19.891 167.161,19.357 167.161,18.713C167.161,17.668 168.05,16.379 169.828,14.845C171.606,13.312 173.04,12.545 174.129,12.545ZM174.096,41.883L177.13,39.883C177.241,39.772 177.374,39.627 177.53,39.45C177.685,39.25 177.863,38.972 178.063,38.616C178.219,38.327 178.419,38.083 178.663,37.883C178.93,37.683 179.23,37.505 179.563,37.349C179.741,37.127 179.997,36.849 180.33,36.516C180.663,36.182 181.086,35.793 181.597,35.349C181.841,35.216 182.153,35.027 182.53,34.782C182.908,34.515 183.319,34.171 183.764,33.749C185.787,31.837 187.553,30.404 189.065,29.448C190.598,28.492 191.888,28.014 192.932,28.014C193.51,28.014 193.932,28.137 194.199,28.381C194.488,28.626 194.632,28.97 194.632,29.415C194.632,29.881 194.544,30.292 194.366,30.648C194.21,31.004 193.955,31.304 193.599,31.548C193.043,31.948 192.443,32.393 191.799,32.882C191.443,33.349 191.01,33.849 190.498,34.382C189.987,34.893 189.387,35.404 188.698,35.916C188.476,36.205 188.287,36.46 188.131,36.682C188.02,36.794 187.809,36.994 187.498,37.283C187.187,37.571 186.776,37.905 186.264,38.283C186.042,38.772 185.553,39.405 184.797,40.183C184.064,40.961 183.075,41.894 181.83,42.983C181.675,43.139 181.397,43.495 180.997,44.05C180.597,44.606 180.074,45.339 179.43,46.251L179.663,46.551C180.152,46.395 180.663,46.128 181.197,45.751C181.73,45.373 182.319,44.873 182.964,44.25C183.72,43.561 184.331,43.006 184.797,42.583C185.286,42.139 185.631,41.85 185.831,41.717L186.298,41.45C186.453,41.361 186.631,41.25 186.831,41.117C187.854,39.894 188.809,38.994 189.698,38.416C190.587,37.816 191.41,37.516 192.165,37.516C192.632,37.516 192.988,37.705 193.232,38.083C193.477,38.438 193.621,38.983 193.666,39.716C193.621,40.828 193.599,41.894 193.599,42.917C193.577,43.628 193.766,44.273 194.166,44.85C194.588,45.406 195.133,45.684 195.799,45.684C195.999,45.684 196.188,45.628 196.366,45.517C196.566,45.406 196.766,45.262 196.966,45.084C197.122,44.884 197.266,44.695 197.4,44.517L197.866,43.984C197.955,43.939 198.077,43.861 198.233,43.75C198.411,43.639 198.578,43.506 198.733,43.35C199.044,44.017 199.3,44.606 199.5,45.117C199.722,45.606 199.889,46.04 200,46.417C199.489,46.884 198.978,47.373 198.466,47.884C197.977,48.373 197.455,48.84 196.899,49.285C196.233,49.796 195.588,50.185 194.966,50.451C194.344,50.696 193.721,50.818 193.099,50.818C191.654,50.818 190.543,50.407 189.765,49.585C188.987,48.762 188.531,47.518 188.398,45.851C188.398,45.651 188.365,45.451 188.298,45.251C188.254,45.028 188.142,44.806 187.965,44.584L187.598,44.95C187.465,45.062 187.309,45.217 187.131,45.417C186.842,45.639 186.476,45.917 186.031,46.251C185.609,46.584 185.109,46.984 184.531,47.451C183.753,48.251 183.097,48.907 182.564,49.418C182.03,49.929 181.652,50.296 181.43,50.518C180.986,50.896 180.463,51.274 179.863,51.652C179.285,52.029 178.63,52.418 177.896,52.818C177.43,53.063 177.03,53.252 176.696,53.385C176.363,53.541 176.118,53.619 175.963,53.619C174.896,53.619 174.107,53.363 173.596,52.852C173.084,52.318 172.829,51.507 172.829,50.418C172.829,49.818 172.962,49.251 173.229,48.718C173.473,48.162 173.851,47.629 174.362,47.118C174.407,46.829 174.429,46.595 174.429,46.417C174.429,46.306 174.396,46.195 174.329,46.084C174.285,45.951 174.218,45.806 174.129,45.651C173.996,45.339 173.851,44.995 173.696,44.617C173.518,44.217 173.329,43.795 173.129,43.35C173.218,43.261 173.351,43.095 173.529,42.85C173.685,42.583 173.873,42.261 174.096,41.883Z"/>
    </g>
</svg>
