<svg viewBox="0 0 200 79.5" xmlns="http://www.w3.org/2000/svg">
<defs>
<style>.cls-2 { fill:#f5f5f5; }</style>
</defs>
<title>numbfall</title>
<path class="cls-2" d="m160.4 55.9c1.2-11.4 7.1-21.7 12-31.8 2.5-5.2 5.6-10.3 7.5-15.8 0.5-1.4 0.7-3.7 2.4-3.9s3.5 2.7 3.5 4.2c0.1 2.3-2.1 5.3-3.2 7.3-1.3 2.6-2.7 5.1-4 7.7-2.7 5.3-5.3 10.7-7.7 16.1-2.1 4.9-4 9.9-5.3 15.1-0.4 1.5-0.5 5.4-2.2 6.2-2.4 1.3-2.7-3.5-3-5.1 0.7-6 0.3 1.4 0 0zm-146.5-7c-1.9 2.2-3.8 4.4-5.7 6.6-1.6 1.9-3.5 5.8-6.2 4.3-2.9-1.7-2.1-5.1-1-7.5 1.6-3.4 2.8-6.9 4-10.5 0.7-2.3 1-5.5 2.3-7.4 1.4-2 4.2-2 5.7 0.2 1.3 2-0.7 4.7 0.5 6.3 1.9-2.8 4.8-6.1 7.9-2.2 2.5 3.1-0.5 8.9-0.9 12.4-0.2 1.9 1 4.6 0.4 6.2-0.9 2.3-3.1 1.3-4.4 0.1s-2.1-2.7-2.2-4.4c-0.2-1.2 0.6-3.2-0.4-4.1zm17.5 1.9c2.1-2 4.1-4 5.9-6.3 1.5-1.9 2.7-5.4 4.5-7 1.8-1.5 4.3-0.3 4.7 1.9 0.4 2.4-1.7 5.5-2.5 7.6-1 2.2-2.6 4.9-2.8 7.5-0.2 2.5 2.6 3.3 2.5 5.3-0.2 2-3.2 3.1-4.7 2.2-1.9-1.1-1.9-5.7-3.7-6.2-2.9-0.9-7.5 9.1-10.9 3.1-2.4-4.2 2-12 3.6-15.7 0.9-2 6.8-15 8.8-6.8 0.7 2.7-1.8 5.7-2.9 8-0.8 1.4-3.3 5.3-2.5 6.4zm118.8 10.6c1.7-0.6 3.3-1.1 5-1.7-0.2 3-2.9 7.4-6.4 6.8-3.6-0.7-4.5-6.1-4.5-9-1.8 1.4-4.7 4.3-7.3 3.6-3.4-0.9-2.9-4.9-1.7-7.2 2.8-5.4 7.7-14.6 14.1-15.6 2.1-0.3 1.8 0.4 3.1-1.6 0.8-1.1 1-2.6 2.6-2.8 1-0.1 3.4 1.3 3.7 2.3 0.3 1.1-1.5 3.3-2 4.2-1.9 3.6-3.5 7.2-4.9 11-1 2.7-3.3 7.1-1.7 10zm-1.8-16.7c-2.1 0.5-4.6 3.8-5.1 5.9 1.8-1.9 4-3.6 5.1-5.9zm-86.7-5.1c1.6-1.1 3.8-3.5 5.8-3.5 2.3-0.1 3.7 2 3.8 4.1 0.1 2.4-3.5 10-2.2 11.5 1.2-1.6 2.5-3.1 3.7-4.7 1.9-2.5 4-7.4 7.7-3.9 1.7 1.6 1.4 4.4 1.5 6.6 0.1 1.4 0 2.9 0.5 4.2 0.3 1 1.2 1.5 1.1 2.6-0.3 2.7-2.6 1.3-3.8 0.1-1.7-1.6-2.7-3.8-3.2-6-3.6 2-9.1 16.2-14.5 12.2-5.6-4.1 4.2-14.7 3.2-19.8-2.1 2.9-3.7 6-5.5 9.1-1.2 2.2-2.5 6.3-4.5 7.7-2.1 1.5-4.8-0.5-5.5-2.8-0.6-2.2 1.4-5.1 2-7.3 0.8-2.7 1.5-5.4 2.7-7.9 0.9-1.9 1.3-5.6 3-6.8 1.2-1 3.7-0.7 4.6 1 0.5 1.3-1.2 3-0.4 3.6zm39.9 1.1c3.5-2.5 7.9-5.7 11.7-1.9 3.6 3.7 0.9 10.5-1.3 14.3s-7.5 9.7-12.4 7.8c-0.9-0.3-2.3-1.9-3.2-2-1-0.1-1.5 1.3-2.1 2.4-0.9 1.7-1.6 4.4-3.9 4.6-7 0.6-1.9-9.4-0.8-11.7 2.7-5.9 4.9-12 7.2-18.1s4.8-12.2 7.2-18.3c0.8-2 1.7-7.1 4.1-7.7s3.9 2.4 3.7 4.4c-0.3 3.1-2.7 6.8-3.9 9.6-1.4 3.3-2.7 6.6-4.1 10-0.6 1.2-3.2 5.7-2.2 6.6zm6.6 2.2c-4.4 3.3-7.3 8-10.4 12.4 6 3.3 10.6-7.9 10.4-12.4zm9.9 19.7c-2.9 0.6-6.9-2.9-3.3-4.7 1.6-0.8 4.1 0.2 5.5-1.2 1.6-1.4 2-5.7 2.6-7.6 3.3-10 7.2-20.2 11.8-29.6 3.2-6.5 7.5-16.8 15.1-19.2 3.1-1 6.8 0.9 8.1 3.9 1.6 3.6-1.7 8.8-3.3 12-1.1 2.1-3.4 8.3-7 6.7-3.2-1.4 2-9 2.9-10.8 0.6-1.3 2.7-4.3 2.6-5.7-0.2-2.1-1.7-1.1-3.2-0.2-4.1 2.4-6.2 7.1-8 11.3-4.2 9.7-8.5 19.5-11.7 29.5-0.8 2.4-1.5 4.9-2.2 7.4-0.1 0.5-0.7 1.8-0.6 2.5 0.2 1 1.5 1.4 1.7 2.3 0.3 1.6-1.4 1.4-2.5 2.2-1.2 1-1.5 2-1.8 3.5-1 4.1-0.9 8.6-2.1 12.6-1.1 3.9-6 2.4-6.4-1.3-0.5-4.6 2-9 1.8-13.6-1.9 0.4 0.1 1.3 0 0zm81.9-55c-4.1 10.5-8.9 20.7-12.6 31.3-1.9 5.3-3.6 10.7-4.6 16.3-0.3 1.6-0.3 4.8-1.4 6.1-2 2.2-3.1-1.4-3.5-3.1-1.2-5.3 1.1-11 2.7-16.1 1.7-5.3 3.7-10.5 5.7-15.6 2.1-5.1 4.5-10.2 6.4-15.3 0.6-1.6 0.9-5.6 2.5-6.6 1.6-0.9 5.2 1 4.8 3-0.9 2.4 0.1-0.2 0 0z"/>
</svg>