<svg xmlns="http://www.w3.org/2000/svg" viewBox="0 0 682.7 272"><defs><style>.a{fill:#f5f5f5;}</style></defs><title>name</title><path class="a" d="M772.2,35.3c-3.1,8-5.9,16.1-9.3,24-18,42.4-37.2,84.3-47.7,129.4-1.7,7.4-2.7,15-4.2,22.5a28.9,28.9,0,0,1-2.3,7.1c-1.8,3.6-5.3,4.2-7.4.8a35.9,35.9,0,0,1-4.6-11.4c-2.6-12.1-.1-24,3.3-35.4,4.8-16.2,10-32.4,16-48.2q12.1-31.9,25.8-63.2c4.6-10.6,9.2-20.9,11.2-32.4a2.2,2.2,0,0,1,.3-0.7c2.3-3.9,6.1-5.1,9.8-3.5s6.8,5,8.7,8.6A3.4,3.4,0,0,1,772.2,35.3Z" transform="translate(-89.6 -9.1)"/><path class="a" d="M492.8,222.8c-6.6,1.4-11.5-.3-14.8-5.9s-1.5-8.8,3.6-10a76.3,76.3,0,0,1,12.8-1.7c3.8-.3,6.6-1.3,7.8-5.4,3.7-11.9,7.1-23.9,11.5-35.5q12.2-32.6,25.3-64.8c4.6-11.2,9.7-22.2,15.3-33,9.7-18.7,19-37.8,37.2-50.4,3.1-2.2,6.3-4.9,9.8-5.8s9-1.7,12.4-.2c7.3,3.4,14.3,8,16.3,16.9a13.6,13.6,0,0,1,.1,6.2c-4.5,17.2-13.4,32.5-21.7,48-2.8,5.3-13.2,8-16.7,4.8-0.9-.9-1.9-2.6-1.6-3.7,2.1-7.4,3.4-14.9,7.8-21.8,5.9-9.3,9.9-19.8,14.6-29.8,1.8-3.8-.7-5.5-3.7-4.2-4.9,2.1-10,4.6-13.8,8.3-9.7,9.4-15.7,21.4-20.9,33.7-11.9,28.5-23.8,57-34.8,85.8-5.6,14.7-9.5,30-14.3,45-1.2,3.8.2,6.2,3,8.6,4.3,3.9,4.1,6.3-1.5,8-7.3,2.2-9.7,7.2-10.8,13.8l-6.8,40.7c-0.7,4.3-.2,9.6-6.2,10.5s-13.9-2.1-15.3-8-0.7-10.2,0-15.2,2.6-10.3,4-15.4c0.7-2.7,1.7-5.5,1.9-8.2S493,227.2,492.8,222.8Z" transform="translate(-89.6 -9.1)"/><path class="a" d="M436.6,148c2.1-1.5,4.2-3.1,6.5-4.6s6.1-4.1,9.4-5.6c13.6-5.8,20.6-2.4,28.7,10.3,1.9,3,1.3,8.1.7,12.1-2.4,17.4-9.1,33.1-21.6,45.6-4.5,4.5-10.4,7.6-16,10.7s-12.5,2.7-18.3-1.4c-2.7-1.9-5.6-3.5-9.1-5.7-1.7,2.7-3.5,5.2-4.9,7.9s-3.8,8.5-6.4,12.4c-4.3,6.5-13.9,5.7-17.8-1.1s-3.8-11.9-.4-18.4c16.6-31.8,27.6-65.9,40.7-99.1q12.2-30.8,24.6-61.6c2.7-6.8,8.2-7.9,13.7-3.1s6.2,9.5,3.5,15.9c-8.7,21-17.3,42.1-26,63.1l-8.8,21.5Zm22.3,7.7c-15.8,11.9-25.2,27.5-35.5,42.3,8,4.3,14.1,2.1,19.1-4.3,3.1-3.9,6.5-7.7,9.1-11.9C456.3,174.3,459.6,166.2,458.9,155.6Z" transform="translate(-89.6 -9.1)"/><path class="a" d="M300.2,144.5c4.1-2.8,8.3-5.4,12.1-8.6s7.8-5,12.7-2.5,8.5,7.3,7.7,12.9c-1.3,9.5-3.6,18.8-5.8,28.2-0.8,3.5-2.1,6.8-3.2,10.2l1.4,0.7,8.5-10.8,8-10.6a47.8,47.8,0,0,0,4.5-6.5c2.5-4.9,4.9-6.3,10.4-5.2,7.4,1.5,11.4,6.3,11.9,13.9s0.8,16.6,1.6,24.9c0.3,2.4,1.9,4.9,3.5,6.8s1.2,5.8-.9,8.3-4.6.9-6.9-.5c-8.8-5.4-13-13.9-15.2-24a14.6,14.6,0,0,0-2.8,2c-7.7,10-15,20.4-23.2,30a57.3,57.3,0,0,1-14.1,11.5c-5.3,3.2-14.8-4.1-14.6-11.3a49.9,49.9,0,0,1,2.6-14.1c4.1-12.5,8.6-24.8,12.9-37.2a12.1,12.1,0,0,0,.6-6.7c-1.9,2.6-4,5.1-5.6,7.9-8.8,15.5-17.4,31-26.1,46.5-3.5,6.3-8.4,7.5-13.8,2.9-2.9-2.5-5.1-6-7.1-9.4-0.8-1.3-.7-3.6-0.1-5.2,1.5-4.4,3.7-8.7,5.1-13.1,2.8-8.6,4.9-17.5,7.8-26.1,1.8-5.1,4.9-9.7,7.1-14.7a30.6,30.6,0,0,0,2.1-8c0.6-4.1,4.9-10.1,8.1-10.6s11.9,4.4,12.8,7.6c0.4,1.4-.4,3.2-0.9,4.7a50.6,50.6,0,0,1-2.6,5.1Z" transform="translate(-89.6 -9.1)"/><path class="a" d="M602.4,218.7l16.9-5.8c-0.1,1.7.3,3.4-.3,4.6-2.3,4.2-4.8,8.4-7.4,12.4-6.3,9.7-19.4,7.5-23.8-1.3-2.8-5.5-3.9-11.8-5.6-17.8-0.4-1.5-.1-3.2-0.1-5.7-3.2,2.5-5.7,4.5-8.4,6.4a47.1,47.1,0,0,1-5.9,3.7c-4.6,2.3-9.4,4.2-14,.4s-7.2-9.6-5.4-16a24.5,24.5,0,0,1,3-6.8c7.5-11.6,14.9-23.2,22.7-34.6,2.7-4,6.1-7.4,9.4-11,5.4-6,11.8-8.9,20.1-7.1,1.3,0.3,3.4-.8,4.2-1.9a55.4,55.4,0,0,0,4.7-8.2c2.1-4.1,5.6-6.3,9.7-4.7s6.8,4.4,9.6,7.2c0.6,0.6-.7,3.6-1.7,5.2a310.5,310.5,0,0,0-28.4,66.2C599.7,210.5,600.4,215.2,602.4,218.7Zm-6.3-57c-5.6,1.3-16,14-17.3,20.1C585,175.1,592.3,169.9,596.1,161.6Z" transform="translate(-89.6 -9.1)"/><path class="a" d="M197,182.6c13.2-12.4,25.3-25.7,33.2-42.5,1.3-2.7,5.7-5.5,8.5-5.4s7.3,3.1,8.7,5.9,1.2,7.6-.1,10.9c-4.2,10.8-9.1,21.4-13.7,32.1-0.9,2.1-1.5,4.4-2.2,6.6-2.3,7.1-2.9,13.5,4.9,18,3.3,1.9,3.1,5.1.5,8.1-7.3,8.7-13.9,8.2-19.4-1.7a89,89,0,0,1-5-11.9c-1.4-3.8-3.2-4.6-6.5-1.8-5.1,4.3-10.1,8.7-15.6,12.5-9,6.4-19.2,1.6-19.2-9.6a62.8,62.8,0,0,1,3.3-21.5c5.2-14.2,11.5-27.9,17.7-41.7a64.2,64.2,0,0,1,7.1-12c4.3-5.8,9.9-5.4,13.7.6,2.6,4.1,3.7,8.4,1.2,13.1-4.7,9.2-9.1,18.4-13.6,27.7-1.8,3.8-3.3,7.8-5,11.7Z" transform="translate(-89.6 -9.1)"/><path class="a" d="M137.2,176l-19.5,22.6c-4.2,4.9-8.4,9.9-12.7,14.7-2.7,3-5.5,2.4-8.3-.1-8.8-7.8-9.1-15.3-3.4-25.5,4.6-8.2,7.5-17.3,10.5-26.3s6-19.7,9-29.5l0.6-1.9c2.1-6.6,5.1-9.2,9.9-8.6,7.2,0.9,12.5,5.2,12.6,11.3s-0.9,9.8-1.5,14.6l1.4,1.6c1.8-2.6,3.4-5.4,5.5-7.6s5.3-7.7,10.5-5.9c7.2,2.5,14.5,5.6,14.1,15-0.2,5.6-1.5,11.2-2.7,16.7-2.3,11-6.4,21.6-1.8,33.2,1.8,4.5-2.5,7.8-6.1,9.7-1.3.7-4.5-1.2-6.4-2.6-8.7-5.9-12-14.3-10.3-24.7a36.4,36.4,0,0,0,0-5.8Z" transform="translate(-89.6 -9.1)"/><path class="a" d="M637.2,199.9c2.1-20.3,7.7-37.8,15.4-54.4,13.6-29.7,27.8-59.3,42.8-88.4A152.2,152.2,0,0,0,706,30.6c2.3-7.6,5.1-8.4,11.4-3.6s9.2,10.2,4.6,19.4c-8,16.1-16.7,31.8-24.7,47.9-15,30.2-30.1,60.4-39.7,93-2.2,7.3-3.7,14.8-5.6,22.2a15.2,15.2,0,0,1-1.9,5.1c-1.2,1.7-3.2,4.2-4.7,4.2s-4.3-2.3-4.9-4.1A150.8,150.8,0,0,1,637.2,199.9Z" transform="translate(-89.6 -9.1)"/></svg>