<svg viewBox="0 0 200 67" version="1.1" xmlns="http://www.w3.org/2000/svg">
<defs>
<style>.cls-2 { fill: #f5f5f5; }</style>
</defs>
    <g class="cls-2">
        <path d="M154.292,40.073C153.781,40.54 153.27,41.029 152.759,41.54C152.27,42.029 151.748,42.496 151.192,42.941C150.525,43.452 149.881,43.841 149.258,44.107C148.636,44.352 148.014,44.474 147.391,44.474C145.947,44.474 144.835,44.063 144.057,43.241C143.279,42.418 142.824,41.174 142.69,39.507C142.69,39.307 142.657,39.107 142.59,38.907C142.546,38.684 142.435,38.462 142.257,38.24L141.89,38.606C141.757,38.718 141.601,38.873 141.424,39.073C141.135,39.295 140.768,39.573 140.323,39.907C139.901,40.24 139.401,40.64 138.823,41.107C138.045,41.907 137.39,42.563 136.856,43.074C136.323,43.585 135.945,43.952 135.723,44.174C135.278,44.552 134.756,44.93 134.156,45.308C133.578,45.685 132.922,46.074 132.189,46.474C131.722,46.719 131.322,46.908 130.988,47.041C130.655,47.197 130.411,47.275 130.255,47.275C129.188,47.275 128.399,47.019 127.888,46.508C127.377,45.974 127.121,45.163 127.121,44.074C127.121,43.474 127.255,42.907 127.521,42.374C127.766,41.818 128.144,41.285 128.655,40.774C128.699,40.485 128.721,40.251 128.721,40.073C128.721,39.962 128.688,39.851 128.621,39.74C128.577,39.607 128.51,39.462 128.421,39.307C128.288,38.995 128.144,38.651 127.988,38.273C127.81,37.873 127.621,37.451 127.421,37.006C127.51,36.917 127.643,36.751 127.821,36.506C127.977,36.239 128.166,35.917 128.388,35.539L131.422,33.539C131.533,33.428 131.666,33.283 131.822,33.106C131.978,32.906 132.155,32.628 132.355,32.272C132.511,31.983 132.711,31.739 132.955,31.539C133.222,31.339 133.522,31.161 133.856,31.005C134.033,30.783 134.289,30.505 134.622,30.172C134.956,29.838 135.378,29.449 135.889,29.005C136.134,28.872 136.445,28.683 136.823,28.438C137.201,28.171 137.612,27.827 138.056,27.405C140.079,25.493 141.846,24.06 143.357,23.104C144.891,22.148 146.18,21.67 147.225,21.67C147.802,21.67 148.225,21.793 148.491,22.037C148.78,22.282 148.925,22.626 148.925,23.071C148.925,23.537 148.836,23.948 148.658,24.304C148.503,24.66 148.247,24.96 147.891,25.204C147.336,25.604 146.736,26.049 146.091,26.538C145.735,27.005 145.302,27.505 144.791,28.038C144.28,28.549 143.68,29.06 142.99,29.572C142.768,29.861 142.579,30.116 142.424,30.338C142.313,30.45 142.101,30.65 141.79,30.939C141.479,31.227 141.068,31.561 140.557,31.939C140.335,32.428 139.846,33.061 139.09,33.839C138.356,34.617 137.367,35.55 136.123,36.639C135.967,36.795 135.689,37.151 135.289,37.706C134.889,38.262 134.367,38.995 133.722,39.907L133.956,40.207C134.445,40.051 134.956,39.784 135.489,39.407C136.023,39.029 136.612,38.529 137.256,37.906C138.012,37.217 138.623,36.662 139.09,36.239C139.579,35.795 139.923,35.506 140.123,35.373L140.59,35.106C140.746,35.017 140.923,34.906 141.124,34.773C142.146,33.55 143.102,32.65 143.991,32.072C144.88,31.472 145.702,31.172 146.458,31.172C146.924,31.172 147.28,31.361 147.525,31.739C147.769,32.094 147.914,32.639 147.958,33.372C147.914,34.484 147.891,35.55 147.891,36.573C147.869,37.284 148.058,37.929 148.458,38.506C148.88,39.062 149.425,39.34 150.092,39.34C150.292,39.34 150.481,39.284 150.658,39.173C150.858,39.062 151.059,38.918 151.259,38.74C151.414,38.54 151.559,38.351 151.692,38.173L152.159,37.64C152.248,37.595 152.37,37.517 152.525,37.406C152.692,37.302 152.849,37.179 152.996,37.036C152.984,37.025 152.971,37.016 152.959,37.006C153.381,36.584 154.015,35.984 154.859,35.206C155.726,34.406 156.815,33.428 158.126,32.272C158.26,32.161 158.593,31.794 159.127,31.172C159.66,30.55 160.427,29.661 161.427,28.505C161.894,28.038 162.46,27.438 163.127,26.705C163.794,25.971 164.55,25.104 165.394,24.104C165.95,23.348 166.494,22.771 167.028,22.37C167.583,21.97 168.117,21.77 168.628,21.77C169.273,21.77 169.739,21.937 170.028,22.27C170.34,22.582 170.495,23.037 170.495,23.637C170.495,24.015 170.44,24.571 170.328,25.304C170.217,26.038 170.162,26.593 170.162,26.971C170.162,27.594 170.062,28.683 169.862,30.238C169.684,31.794 169.395,33.817 168.995,36.306C168.973,36.462 168.917,36.728 168.828,37.106C168.761,37.462 168.65,37.94 168.495,38.54C168.361,38.984 168.272,39.396 168.228,39.773C168.184,40.151 168.161,40.473 168.161,40.74C168.184,40.918 168.195,41.062 168.195,41.174C169.284,40.373 170.228,39.629 171.029,38.94C171.851,38.251 172.529,37.606 173.062,37.006L174.396,40.073C174.173,40.185 172.618,41.563 169.728,44.207C169.595,44.607 169.295,45.03 168.828,45.474C168.384,45.919 167.772,46.374 166.994,46.841C166.772,47.219 166.506,47.708 166.194,48.308C165.883,48.93 165.528,49.653 165.128,50.475C164.905,51.075 164.705,51.642 164.527,52.175C164.372,52.731 164.238,53.22 164.127,53.642C163.905,54.531 163.516,55.587 162.96,56.81C162.405,58.032 161.727,59.454 160.927,61.077C159.949,63.011 159.071,64.455 158.293,65.411C157.537,66.367 156.904,66.833 156.393,66.811C155.859,66.767 155.426,66.722 155.093,66.678C154.781,66.656 154.581,66.622 154.492,66.578C154.292,66.444 154.159,66.211 154.092,65.878C154.003,65.567 153.959,65.155 153.959,64.644C153.959,64.311 154.015,63.788 154.126,63.077C154.237,62.388 154.404,61.533 154.626,60.51C154.781,59.799 154.981,59.099 155.226,58.41C155.493,57.743 155.793,57.076 156.126,56.409C156.415,55.765 156.715,55.143 157.026,54.542C157.337,53.942 157.66,53.298 157.993,52.609C158.726,51.72 159.438,50.753 160.127,49.708C160.838,48.664 161.549,47.53 162.26,46.308C162.394,45.841 162.527,45.252 162.66,44.541C162.816,43.807 162.972,42.941 163.127,41.94C163.327,40.874 163.494,39.896 163.627,39.007C163.738,38.251 163.827,37.651 163.894,37.206C163.983,36.762 164.016,36.462 163.994,36.306L163.794,34.572L164.361,32.772C164.272,32.505 164.15,32.305 163.994,32.172C163.861,32.017 163.705,31.939 163.527,31.939C163.105,31.939 162.705,32.05 162.327,32.272C161.949,32.494 161.594,32.817 161.26,33.239C160.882,33.75 160.416,34.295 159.86,34.873C159.304,35.428 158.649,36.051 157.893,36.74C156.959,37.584 156.193,38.284 155.593,38.84C154.992,39.373 154.559,39.784 154.292,40.073ZM153.075,37.113C153.244,37.478 153.396,37.818 153.531,38.135C153.474,37.977 153.416,37.812 153.359,37.64C153.314,37.506 153.259,37.384 153.192,37.273C153.156,37.213 153.117,37.16 153.075,37.113ZM117.346,31.155C117.35,31.134 117.353,31.139 117.353,31.172L117.346,31.155ZM70.53,40.039L70.545,40.073C69.967,40.585 69.412,41.096 68.878,41.607C68.367,42.118 67.822,42.618 67.245,43.107C66.6,43.73 65.955,44.196 65.311,44.507C64.666,44.796 64.022,44.941 63.377,44.941C62.71,44.941 61.577,44.263 59.977,42.907C58.399,41.529 57.554,40.84 57.443,40.84C56.621,41.596 55.898,42.352 55.276,43.107C54.876,43.596 54.476,44.074 54.076,44.541C53.698,44.985 53.309,45.452 52.909,45.941C52.798,46.097 52.62,46.286 52.375,46.508C52.131,46.73 51.853,46.986 51.542,47.275C51.231,47.719 50.875,48.141 50.475,48.541C50.097,48.964 49.619,49.175 49.042,49.175C48.152,49.175 47.486,48.919 47.041,48.408C46.597,47.897 46.374,47.119 46.374,46.074C46.374,45.008 46.463,43.874 46.641,42.674C46.841,41.474 47.141,40.218 47.541,38.907C47.697,38.284 47.819,37.74 47.908,37.273C47.997,36.784 48.041,36.362 48.041,36.006L47.808,35.673C47.519,36.028 47.152,36.451 46.708,36.94C46.263,37.429 45.741,38.029 45.141,38.74C45.052,38.807 44.952,38.929 44.841,39.107C44.752,39.262 44.53,39.584 44.174,40.073C44.063,39.784 43.93,39.44 43.774,39.04C43.596,38.64 43.418,38.173 43.241,37.64C43.196,37.506 43.141,37.384 43.074,37.273C43.007,37.162 42.929,37.073 42.84,37.006C42.929,36.94 43.018,36.851 43.107,36.74C43.196,36.606 43.296,36.406 43.407,36.139C43.541,35.917 43.73,35.684 43.974,35.439C44.218,35.173 44.507,34.884 44.841,34.572C45.463,34.061 46.019,33.428 46.508,32.672C47.019,31.894 47.519,31.005 48.008,30.005C48.653,28.605 49.242,27.416 49.775,26.438C50.308,25.46 50.797,24.715 51.242,24.204C51.375,23.693 51.642,22.882 52.042,21.77C52.442,20.659 52.975,19.214 53.642,17.436C54.287,15.747 54.831,14.38 55.276,13.336C55.72,12.269 56.054,11.535 56.276,11.135C56.365,10.98 56.476,10.78 56.609,10.535C56.765,10.291 56.887,9.991 56.976,9.635C57.287,8.59 57.654,7.624 58.076,6.735C58.499,5.823 58.932,4.968 59.377,4.167C59.488,3.967 59.621,3.812 59.777,3.701C59.954,3.59 60.132,3.534 60.31,3.534C61.199,3.534 61.855,3.878 62.277,4.567C62.722,5.256 62.944,6.268 62.944,7.601C62.944,9.09 62.466,11.157 61.51,13.802C60.555,16.425 59.088,19.614 57.11,23.371C56.709,24.215 56.276,25.249 55.809,26.471C55.343,27.694 54.876,29.094 54.409,30.672C54.031,31.894 53.664,33.139 53.309,34.406C52.953,35.673 52.587,36.917 52.209,38.14C51.853,39.318 51.586,40.251 51.409,40.94C51.231,41.607 51.142,42.052 51.142,42.274C51.142,42.429 51.164,42.54 51.209,42.607C51.275,42.674 51.364,42.707 51.475,42.707C51.698,42.707 51.886,42.64 52.042,42.507C52.22,42.374 52.353,42.185 52.442,41.94C52.887,41.296 53.32,40.573 53.742,39.773C54.187,38.951 54.631,38.051 55.076,37.073L55.176,36.106C55.331,34.639 55.665,33.617 56.176,33.039C56.687,32.461 57.643,32.005 59.043,31.672C59.221,31.605 59.665,31.005 60.377,29.872C61.11,28.738 62.077,27.06 63.277,24.838C63.944,23.66 64.5,22.782 64.944,22.204C65.389,21.604 65.722,21.304 65.944,21.304C66.456,21.304 66.822,21.47 67.045,21.804C67.267,22.137 67.378,22.637 67.378,23.304C67.378,25.015 66.422,27.171 64.511,29.772C62.599,32.372 61.644,34.084 61.644,34.906C61.644,35.484 62.155,36.373 63.177,37.573C64.2,38.751 65.044,39.34 65.711,39.34C65.933,39.34 66.178,39.273 66.444,39.14C66.733,38.984 67.067,38.751 67.445,38.44C67.734,38.218 68.011,37.984 68.278,37.74C68.552,37.486 68.847,37.253 69.161,37.04C69.156,37.029 69.15,37.018 69.145,37.006C69.634,36.584 70.012,36.251 70.278,36.006C70.545,35.762 70.756,35.55 70.912,35.373C71.267,35.039 71.556,34.717 71.779,34.406C72.001,34.095 72.123,33.817 72.145,33.572C72.345,32.817 72.579,31.872 72.845,30.739C73.112,29.605 73.457,28.294 73.879,26.805C74.079,26.36 74.29,25.804 74.512,25.138C74.757,24.449 75.013,23.682 75.279,22.837C75.546,21.726 75.879,20.715 76.279,19.803C76.679,18.892 77.124,18.07 77.613,17.336C77.769,17.136 77.924,16.892 78.08,16.603C78.235,16.292 78.391,15.936 78.546,15.536C78.702,15.18 78.913,14.769 79.18,14.302C79.469,13.813 79.791,13.247 80.147,12.602C81.058,11.269 81.858,10.124 82.547,9.168C83.236,8.213 83.803,7.446 84.247,6.868C85.048,5.912 85.848,5.023 86.648,4.201C87.47,3.356 88.292,2.578 89.115,1.867C89.871,1.222 90.526,0.756 91.082,0.467C91.637,0.156 92.082,0 92.415,0C92.727,0.267 92.949,0.511 93.082,0.734C93.238,0.734 93.393,0.711 93.549,0.667C94.127,0.667 94.549,0.9 94.816,1.367C95.083,1.834 95.216,2.523 95.216,3.434C95.216,3.634 95.183,3.901 95.116,4.234C95.049,4.545 94.96,4.934 94.849,5.401C94.694,5.557 94.582,5.757 94.516,6.001C94.449,6.246 94.394,6.49 94.349,6.735C94.327,7.046 94.293,7.312 94.249,7.535C94.205,7.757 94.149,7.957 94.082,8.135C93.793,8.668 93.482,9.324 93.149,10.102C92.815,10.857 92.46,11.746 92.082,12.769C91.86,13.147 91.582,13.647 91.249,14.269C90.915,14.891 90.515,15.58 90.048,16.336C89.826,16.758 89.537,17.292 89.182,17.936C88.848,18.559 88.415,19.281 87.881,20.103C87.748,20.415 87.515,20.759 87.181,21.137C86.87,21.493 86.492,21.915 86.048,22.404C85.914,22.759 85.536,23.371 84.914,24.237C84.314,25.104 83.469,26.227 82.38,27.605C81.847,28.294 81.158,29.149 80.313,30.172C79.469,31.194 78.491,32.405 77.38,33.806C76.957,35.473 76.635,36.962 76.413,38.273C76.213,39.562 76.113,40.685 76.113,41.64C76.113,42.018 76.135,42.307 76.179,42.507C76.246,42.685 76.357,42.774 76.513,42.774C76.624,42.618 76.779,42.44 76.979,42.24C77.202,42.04 77.424,41.807 77.646,41.54C78.069,41.162 78.558,40.462 79.113,39.44C79.691,38.418 80.347,37.095 81.08,35.473C81.725,34.006 82.303,32.883 82.814,32.105C83.325,31.305 83.747,30.827 84.081,30.672L85.248,30.172C85.47,30.083 85.67,30.005 85.848,29.938C86.025,29.872 86.17,29.838 86.281,29.838C86.57,29.838 86.837,30.016 87.081,30.372C87.326,30.727 87.526,31.216 87.681,31.839C87.97,32.972 88.204,33.85 88.381,34.472C88.559,35.073 88.659,35.428 88.681,35.539C88.97,36.206 89.315,36.695 89.715,37.006C90.137,37.317 90.637,37.473 91.215,37.473C91.897,37.363 92.698,37.21 93.619,37.013C93.618,37.011 93.617,37.008 93.616,37.006C93.705,36.917 93.927,36.751 94.282,36.506C94.616,36.262 95.06,35.973 95.616,35.639C95.972,35.439 96.383,35.084 96.849,34.572C97.338,34.039 97.883,33.339 98.483,32.472C98.994,31.783 99.439,31.127 99.817,30.505C100.217,29.883 100.539,29.316 100.783,28.805C101.606,27.071 102.417,25.793 103.217,24.971C104.04,24.149 104.884,23.737 105.751,23.737C106.062,23.737 106.295,23.815 106.451,23.971C106.629,24.126 106.718,24.371 106.718,24.704C106.718,25.326 106.662,26.304 106.551,27.638C106.44,28.949 106.384,29.961 106.384,30.672C106.384,30.983 106.407,31.45 106.451,32.072C106.496,32.694 106.551,33.483 106.618,34.439C106.707,35.462 106.784,36.262 106.851,36.84C106.918,37.395 106.984,37.717 107.051,37.806L107.385,38.073C107.851,38.073 109.207,35.573 111.452,30.572C113.697,25.571 115.519,23.071 116.919,23.071C117.497,23.071 117.909,23.259 118.153,23.637C118.42,24.015 118.553,24.571 118.553,25.304C118.553,25.593 118.486,25.849 118.353,26.071C118.22,26.293 118.031,26.482 117.786,26.638C117.697,26.705 117.62,26.827 117.553,27.005C117.508,27.182 117.486,27.416 117.486,27.705C117.331,28.505 117.164,29.327 116.986,30.172C117.031,30.372 117.086,30.55 117.153,30.705L117.346,31.155C117.327,31.235 117.274,31.696 117.186,32.539C117.097,33.606 116.975,35.273 116.819,37.54C116.797,37.673 116.786,37.84 116.786,38.04C116.808,38.24 116.853,38.473 116.919,38.74C117.008,39.029 117.197,39.329 117.486,39.64C117.931,39.64 118.598,38.962 119.487,37.606C120.398,36.228 121.531,34.172 122.887,31.439C122.976,30.972 123.098,30.461 123.254,29.905C123.432,29.349 123.665,28.76 123.954,28.138C124.132,27.627 124.343,27.116 124.587,26.604C124.854,26.071 125.099,25.549 125.321,25.038L125.054,24.037L125.321,22.771C125.41,22.326 125.51,21.904 125.621,21.504C125.777,20.948 125.999,20.537 126.288,20.27C126.577,19.981 126.91,19.837 127.288,19.837C127.666,19.837 127.944,19.937 128.121,20.137C128.299,20.315 128.388,20.57 128.388,20.904C128.388,22.037 128.277,23.215 128.055,24.437C127.832,25.66 127.51,26.927 127.088,28.238C126.621,29.727 126.088,31.105 125.488,32.372C124.91,33.639 124.254,34.839 123.521,35.973C122.965,37.417 122.12,39.04 120.987,40.84C120.253,41.974 119.664,42.852 119.22,43.474C118.798,44.074 118.542,44.43 118.453,44.541C117.853,45.252 117.242,45.797 116.619,46.174C115.997,46.53 115.364,46.708 114.719,46.708C113.897,46.708 113.263,46.063 112.819,44.774C112.397,43.485 112.185,41.551 112.185,38.973C112.185,38.707 112.241,38.384 112.352,38.006C112.463,37.629 112.519,37.34 112.519,37.14L112.352,36.873C112.241,36.873 112.063,37.028 111.819,37.34C111.596,37.651 111.307,38.173 110.952,38.907C110.53,39.684 110.052,40.529 109.518,41.44C109.496,41.663 109.44,41.918 109.352,42.207C109.285,42.496 109.163,42.796 108.985,43.107L107.885,45.208C107.707,45.608 107.507,46.008 107.285,46.408C107.085,46.786 106.896,47.175 106.718,47.575C106.451,47.886 106.129,48.119 105.751,48.275C105.395,48.43 104.984,48.508 104.517,48.508C104.384,48.508 104.251,48.497 104.117,48.475C104.006,48.475 103.862,48.43 103.684,48.341L103.117,47.741C102.939,47.564 102.673,46.397 102.317,44.241C101.961,42.063 101.439,38.884 100.75,34.706C100.528,34.839 100.328,34.984 100.15,35.139C99.972,35.295 99.806,35.462 99.65,35.639C99.45,35.862 99.194,36.139 98.883,36.473C98.594,36.806 98.261,37.195 97.883,37.64C97.594,37.973 97.105,38.373 96.416,38.84C95.744,39.274 95.262,39.675 94.971,40.046C94.975,40.055 94.979,40.064 94.982,40.073C94.449,40.429 93.905,40.774 93.349,41.107L91.749,42.107C91.393,42.307 90.882,42.463 90.215,42.574C89.548,42.663 88.77,42.707 87.881,42.707C86.526,42.707 85.47,42.074 84.714,40.807C83.981,39.518 83.536,38.884 83.381,38.907L83.181,38.907C82.825,39.351 82.447,39.807 82.047,40.273C81.669,40.74 81.291,41.229 80.913,41.74C80.669,42.252 80.324,42.841 79.88,43.507C79.435,44.174 78.902,44.908 78.28,45.708C77.546,46.597 76.902,47.263 76.346,47.708C75.79,48.153 75.313,48.375 74.912,48.375C74.068,48.375 73.401,48.275 72.912,48.075C72.445,47.897 72.168,47.619 72.079,47.241C71.812,45.997 71.601,44.919 71.445,44.007C71.312,43.074 71.245,42.285 71.245,41.64C71.245,41.44 71.256,41.262 71.279,41.107C71.301,40.951 71.323,40.807 71.345,40.673C71.412,40.385 71.49,40.073 71.579,39.74C71.579,39.629 71.545,39.551 71.479,39.507C71.434,39.44 71.345,39.407 71.212,39.407C71.145,39.496 71.056,39.596 70.945,39.707C70.844,39.808 70.705,39.919 70.53,40.039ZM93.845,37.489C93.971,37.792 94.105,38.109 94.249,38.44C94.41,38.777 94.572,39.129 94.733,39.495C94.627,39.228 94.51,38.954 94.382,38.673C94.221,38.302 94.042,37.907 93.845,37.489ZM90.815,6.201C90.571,6.201 90.082,6.646 89.348,7.535C88.615,8.401 87.681,9.691 86.548,11.402C85.903,12.358 85.27,13.313 84.647,14.269C84.025,15.203 83.414,16.125 82.814,17.036C82.547,17.303 82.347,17.57 82.214,17.836C82.103,18.103 82.047,18.381 82.047,18.67C81.602,19.914 81.169,21.081 80.747,22.17C80.347,23.348 80.013,24.26 79.747,24.904C79.502,25.549 79.358,25.927 79.313,26.038L79.48,26.204C79.924,25.804 80.302,25.382 80.613,24.938C81.058,24.426 81.591,23.771 82.214,22.971C82.858,22.148 83.581,21.192 84.381,20.103C85.181,19.081 86.003,17.792 86.848,16.236C87.692,14.658 88.604,12.847 89.582,10.802C90.137,9.691 90.548,8.802 90.815,8.135C91.104,7.468 91.249,7.001 91.249,6.735C91.249,6.579 91.215,6.457 91.149,6.368C91.104,6.257 90.993,6.201 90.815,6.201ZM0,37.006C0.089,36.94 0.167,36.862 0.233,36.773C0.278,36.684 0.3,36.573 0.3,36.439C0.678,36.128 1.1,35.706 1.567,35.173C2.056,34.617 2.6,33.972 3.201,33.239C3.69,32.572 4.19,31.905 4.701,31.239C5.234,30.572 5.801,29.905 6.401,29.238C6.89,28.571 7.368,27.882 7.835,27.171C8.324,26.438 8.835,25.727 9.368,25.038C10.257,24.615 10.946,24.315 11.435,24.137C11.924,23.96 12.258,23.871 12.435,23.871C12.769,23.871 13.024,23.982 13.202,24.204C13.38,24.404 13.469,24.704 13.469,25.104C13.469,25.238 13.436,25.427 13.369,25.671C13.302,25.915 13.224,26.182 13.136,26.471C12.98,26.916 12.802,27.371 12.602,27.838C12.424,28.616 12.213,29.394 11.969,30.172C11.724,30.95 11.491,31.716 11.269,32.472C11.046,33.428 10.868,34.306 10.735,35.106C10.624,35.906 10.568,36.639 10.568,37.306C10.568,38.551 10.624,39.473 10.735,40.073C10.868,40.673 11.046,40.94 11.269,40.874C11.491,40.74 11.769,40.585 12.102,40.407C12.435,40.207 12.824,39.984 13.269,39.74C13.669,39.318 14.113,38.795 14.602,38.173C15.114,37.551 15.725,36.817 16.436,35.973C16.836,35.35 17.247,34.739 17.67,34.139C17.825,33.961 18.003,33.75 18.203,33.506C18.425,33.261 18.625,33.017 18.803,32.772C19.225,31.705 19.692,30.916 20.203,30.405C20.737,29.872 21.326,29.605 21.97,29.605C22.548,29.605 23.004,29.683 23.337,29.838C23.693,29.972 23.937,30.183 24.071,30.472C24.137,30.627 24.193,30.894 24.237,31.272C24.282,31.65 24.304,32.15 24.304,32.772C24.304,33.017 24.349,33.372 24.437,33.839C24.549,34.306 24.604,34.65 24.604,34.873C24.604,35.695 24.749,36.317 25.038,36.74C25.326,37.14 25.771,37.34 26.371,37.34C26.549,37.34 26.76,37.306 27.005,37.24C27.249,37.173 27.493,37.095 27.738,37.006L29.072,40.073C27.738,40.874 26.638,41.485 25.771,41.907C24.926,42.307 24.293,42.507 23.871,42.507C22.759,42.507 21.848,42.218 21.137,41.64C20.426,41.062 19.903,40.207 19.57,39.073C19.525,38.807 19.425,38.54 19.27,38.273C19.137,38.006 18.959,37.74 18.736,37.473C18.536,37.695 18.303,37.962 18.036,38.273C17.792,38.584 17.525,38.895 17.236,39.207C16.636,39.94 16.036,40.662 15.436,41.374C14.836,42.063 14.225,42.752 13.602,43.441C12.824,44.352 12.035,45.019 11.235,45.441C10.457,45.841 9.724,46.041 9.035,46.041C8.012,46.041 7.19,45.741 6.568,45.141C5.945,44.519 5.545,43.607 5.368,42.407C5.168,41.251 5.034,40.351 4.967,39.707C4.901,39.062 4.89,38.673 4.934,38.54C4.89,37.895 4.823,37.406 4.734,37.073C4.667,36.74 4.556,36.573 4.401,36.573L4.201,36.673L2.3,38.64C2.234,38.795 2.123,38.995 1.967,39.24C1.811,39.462 1.6,39.74 1.334,40.073C1.245,39.74 1.089,39.329 0.867,38.84C0.645,38.351 0.356,37.74 0,37.006ZM38.64,44.741C38.64,45.052 38.551,45.352 38.373,45.641C38.217,45.93 37.973,46.208 37.64,46.474C37.528,46.808 37.384,47.052 37.206,47.208C37.051,47.386 36.839,47.475 36.573,47.475C35.661,47.475 34.884,47.152 34.239,46.508C33.594,45.863 33.083,44.908 32.705,43.641L32.939,43.407L32.605,42.54C32.717,42.185 32.817,41.84 32.905,41.507L33.172,40.507C33.283,40.085 33.461,39.784 33.706,39.607C33.972,39.407 34.272,39.307 34.606,39.307C35.184,39.307 35.717,39.462 36.206,39.773C36.717,40.085 37.173,40.562 37.573,41.207C37.951,41.785 38.217,42.374 38.373,42.974C38.551,43.552 38.64,44.141 38.64,44.741ZM174.129,6.201C174.64,6.201 175.007,6.312 175.229,6.534C175.474,6.757 175.596,7.079 175.596,7.501C175.596,7.946 175.507,8.479 175.329,9.102C175.151,9.724 174.896,10.413 174.562,11.169C174.296,11.791 174.051,12.38 173.829,12.936C173.673,13.313 173.151,13.802 172.262,14.402C171.395,14.98 170.74,15.269 170.295,15.269C169.695,15.269 169.184,15.236 168.761,15.169C168.361,15.08 168.05,14.958 167.828,14.803C167.628,14.647 167.461,14.369 167.328,13.969C167.217,13.547 167.161,13.013 167.161,12.369C167.161,11.324 168.05,10.035 169.828,8.501C171.606,6.968 173.04,6.201 174.129,6.201ZM174.096,35.539L177.13,33.539C177.241,33.428 177.374,33.283 177.53,33.106C177.685,32.906 177.863,32.628 178.063,32.272C178.219,31.983 178.419,31.739 178.663,31.539C178.93,31.339 179.23,31.161 179.563,31.005C179.741,30.783 179.997,30.505 180.33,30.172C180.663,29.838 181.086,29.449 181.597,29.005C181.841,28.872 182.153,28.683 182.53,28.438C182.908,28.171 183.319,27.827 183.764,27.405C185.787,25.493 187.553,24.06 189.065,23.104C190.598,22.148 191.888,21.67 192.932,21.67C193.51,21.67 193.932,21.793 194.199,22.037C194.488,22.282 194.632,22.626 194.632,23.071C194.632,23.537 194.544,23.948 194.366,24.304C194.21,24.66 193.955,24.96 193.599,25.204C193.043,25.604 192.443,26.049 191.799,26.538C191.443,27.005 191.01,27.505 190.498,28.038C189.987,28.549 189.387,29.06 188.698,29.572C188.476,29.861 188.287,30.116 188.131,30.338C188.02,30.45 187.809,30.65 187.498,30.939C187.187,31.227 186.776,31.561 186.264,31.939C186.042,32.428 185.553,33.061 184.797,33.839C184.064,34.617 183.075,35.55 181.83,36.639C181.675,36.795 181.397,37.151 180.997,37.706C180.597,38.262 180.074,38.995 179.43,39.907L179.663,40.207C180.152,40.051 180.663,39.784 181.197,39.407C181.73,39.029 182.319,38.529 182.964,37.906C183.72,37.217 184.331,36.662 184.797,36.239C185.286,35.795 185.631,35.506 185.831,35.373L186.298,35.106C186.453,35.017 186.631,34.906 186.831,34.773C187.854,33.55 188.809,32.65 189.698,32.072C190.587,31.472 191.41,31.172 192.165,31.172C192.632,31.172 192.988,31.361 193.232,31.739C193.477,32.094 193.621,32.639 193.666,33.372C193.621,34.484 193.599,35.55 193.599,36.573C193.577,37.284 193.766,37.929 194.166,38.506C194.588,39.062 195.133,39.34 195.799,39.34C195.999,39.34 196.188,39.284 196.366,39.173C196.566,39.062 196.766,38.918 196.966,38.74C197.122,38.54 197.266,38.351 197.4,38.173L197.866,37.64C197.955,37.595 198.077,37.517 198.233,37.406C198.411,37.295 198.578,37.162 198.733,37.006C199.044,37.673 199.3,38.262 199.5,38.773C199.722,39.262 199.889,39.696 200,40.073C199.489,40.54 198.978,41.029 198.466,41.54C197.977,42.029 197.455,42.496 196.899,42.941C196.233,43.452 195.588,43.841 194.966,44.107C194.344,44.352 193.721,44.474 193.099,44.474C191.654,44.474 190.543,44.063 189.765,43.241C188.987,42.418 188.531,41.174 188.398,39.507C188.398,39.307 188.365,39.107 188.298,38.907C188.254,38.684 188.142,38.462 187.965,38.24L187.598,38.606C187.465,38.718 187.309,38.873 187.131,39.073C186.842,39.295 186.476,39.573 186.031,39.907C185.609,40.24 185.109,40.64 184.531,41.107C183.753,41.907 183.097,42.563 182.564,43.074C182.03,43.585 181.652,43.952 181.43,44.174C180.986,44.552 180.463,44.93 179.863,45.308C179.285,45.685 178.63,46.074 177.896,46.474C177.43,46.719 177.03,46.908 176.696,47.041C176.363,47.197 176.118,47.275 175.963,47.275C174.896,47.275 174.107,47.019 173.596,46.508C173.084,45.974 172.829,45.163 172.829,44.074C172.829,43.474 172.962,42.907 173.229,42.374C173.473,41.818 173.851,41.285 174.362,40.774C174.407,40.485 174.429,40.251 174.429,40.073C174.429,39.962 174.396,39.851 174.329,39.74C174.285,39.607 174.218,39.462 174.129,39.307C173.996,38.995 173.851,38.651 173.696,38.273C173.518,37.873 173.329,37.451 173.129,37.006C173.218,36.917 173.351,36.751 173.529,36.506C173.685,36.239 173.873,35.917 174.096,35.539Z"/>
    </g>
</svg>
